<svg xmlns="http://www.w3.org/2000/svg" version="1.1" xmlns:xlink="http://www.w3.org/1999/xlink" xmlns:svgjs="http://svgjs.com/svgjs" width="1440" height="560" preserveAspectRatio="none" viewBox="0 0 1440 560">
    <g mask="url(&quot;#SvgjsMask1091&quot;)" fill="none">
        <rect width="1440" height="560" x="0" y="0" fill="rgba(105, 129, 229, 1)"></rect>
        <path d="M0,354.714C64.451,344.444,110.125,290.619,158.907,247.264C200.743,210.082,234.33,168.083,263.644,120.402C296.839,66.408,336.086,14.147,341.072,-49.039C346.707,-120.445,334.497,-195.534,293.195,-254.055C250.093,-315.126,182.506,-356.293,110.377,-375.909C39.04,-395.31,-36.458,-386.366,-106.516,-362.76C-174.709,-339.783,-230.889,-295.081,-281.455,-243.882C-334.978,-189.689,-412.107,-134.513,-406.994,-58.517C-401.716,19.936,-296.841,49.559,-257.146,117.434C-223.431,175.083,-244.248,258.397,-195.167,303.686C-144.727,350.229,-67.778,365.514,0,354.714" fill="#4764df"></path>
        <path d="M1440 1118.0320000000002C1542.766 1123.3220000000001 1618.789 1028.535 1705.379 972.938 1792.01 917.3140000000001 1893.7 879.483 1947.874 791.938 2005.268 699.19 2047.004 581.018 2011.786 477.79 1977.0720000000001 376.041 1854.079 341.39099999999996 1770.917 273.259 1703.858 218.31900000000002 1655.1 134.29500000000002 1570.335 116.12099999999998 1487.082 98.27100000000002 1409.442 153.71699999999998 1327.915 178.27499999999998 1247.069 202.628 1159.5729999999999 207.187 1093.501 259.757 1020.0989999999999 318.15999999999997 950.942 394.925 938.736 487.929 926.563 580.68 984.317 665.557 1029.491 747.473 1071.665 823.9490000000001 1126.79 887.97 1191.618 946.489 1267.853 1015.304 1337.436 1112.752 1440 1118.0320000000002" fill="#8b9eeb"></path>
    </g>
    <defs>
        <mask id="SvgjsMask1091">
            <rect width="1440" height="560" fill="#ffffff"></rect>
        </mask>
    </defs>
</svg>